<svg width="1187" height="91" viewBox="0 0 1187 91" fill="none" xmlns="http://www.w3.org/2000/svg">
<path d="M0.666667 6C0.666667 8.94552 3.05448 11.3333 6 11.3333C8.94552 11.3333 11.3333 8.94552 11.3333 6C11.3333 3.05448 8.94552 0.666667 6 0.666667C3.05448 0.666667 0.666667 3.05448 0.666667 6ZM382.5 6L383.207 5.29289L382.914 5H382.5V6ZM462 85.5L461.293 86.2071L461.586 86.5H462V85.5ZM1176.17 85.5C1176.17 88.4455 1178.55 90.8333 1181.5 90.8333C1184.45 90.8333 1186.83 88.4455 1186.83 85.5C1186.83 82.5545 1184.45 80.1667 1181.5 80.1667C1178.55 80.1667 1176.17 82.5545 1176.17 85.5ZM6 7H382.5V5H6V7ZM381.793 6.70711L461.293 86.2071L462.707 84.7929L383.207 5.29289L381.793 6.70711ZM462 86.5H1181.5V84.5H462V86.5Z" fill="white"/>
</svg>
